<svg width="26" height="24" viewBox="0 0 26 24" fill="none" xmlns="http://www.w3.org/2000/svg">
<path d="M13 0.841797C8.814 0.841797 3.38086 1.92559 3.38086 1.92559L3.36719 1.94173C1.46066 2.25681 0 3.94968 0 6.00846V12.2085V12.2105V18.4085V18.4105C0.00186045 19.3937 0.34287 20.3441 0.961798 21.0909C1.58073 21.8378 2.43703 22.3321 3.37695 22.4853L3.38086 22.4913C3.38086 22.4913 8.814 23.5772 13 23.5772C17.186 23.5772 22.6191 22.4913 22.6191 22.4913L22.6211 22.4893C23.562 22.3365 24.4193 21.8417 25.0387 21.094C25.6581 20.3463 25.999 19.3947 26 18.4105V18.4085V12.2105V12.2085V6.00846C25.9986 5.02486 25.6578 4.07402 25.0388 3.32677C24.4199 2.57952 23.5633 2.08485 22.623 1.93164L22.6191 1.92559C22.6191 1.92559 17.186 0.841797 13 0.841797ZM10 7.45352L18 12.2085L10 16.9634V7.45352Z" fill="#212427" fill-opacity="0.8"/>
</svg>
