<svg width="144" height="124" viewBox="0 0 144 124" fill="none" xmlns="http://www.w3.org/2000/svg">
<path d="M70.8352 31.8091C45.65 31.8091 25.1631 52.296 25.1631 77.4812C25.1631 102.666 45.65 123.153 70.8352 123.153C96.0204 123.153 116.507 102.666 116.507 77.4812C116.507 68.4262 113.847 59.9855 109.286 52.8805L106.567 56.0918C110.33 62.3548 112.536 69.6574 112.536 77.4812C112.536 100.474 93.8281 119.182 70.8352 119.182C47.8423 119.182 29.1346 100.474 29.1346 77.4812C29.1346 54.4883 47.8423 35.7806 70.8352 35.7806C81.6436 35.7806 91.4748 39.9502 98.8916 46.7216L101.49 43.6537C93.3783 36.2966 82.6206 31.8091 70.8352 31.8091ZM107.048 43.2349L68.6788 88.5114L52.5291 73.4476L49.822 76.3526L69.0162 94.2553L110.081 45.8024L107.048 43.2349Z" fill="#5BC1CF"/>
<path d="M117.413 16.5232C115.332 17.6173 110.19 18.1036 110.19 18.1036V20.0487C110.19 20.0487 115.332 20.535 117.413 21.6291C119.372 22.7232 121.085 24.1821 122.31 26.1272C123.656 28.0723 124.513 30.2605 125.125 32.8135C125.737 35.3665 125.982 37.5669 125.982 37.5669H127.696C127.696 37.5669 128.3 34.0769 128.553 32.8135C129.165 30.2605 130.144 28.0723 131.368 26.1272C132.592 24.1821 134.184 22.7232 136.265 21.6291C138.346 20.535 143.487 20.0487 143.487 20.0487V18.1036C143.487 18.1036 138.346 17.6173 136.265 16.5232C134.306 15.429 132.592 13.9702 131.368 12.0251C130.022 10.08 129.165 7.89171 128.553 5.33875C128.272 3.83393 127.696 0 127.696 0H125.982C125.982 0 125.413 4.36647 125.125 5.33875C124.513 7.89171 123.534 10.08 122.31 12.0251C121.085 13.9702 119.494 15.429 117.413 16.5232Z" fill="#F8F0E7"/>
<path d="M4.28496 44.2672C3.05031 44.9163 0 45.2048 0 45.2048V46.3588C0 46.3588 3.05031 46.6473 4.28496 47.2964C5.44698 47.9456 6.46374 48.8111 7.19001 49.9651C7.9889 51.1191 8.49729 52.4173 8.86042 53.9319C9.22355 55.4465 9.3688 56.752 9.3688 56.752H10.3856C10.3856 56.752 10.744 54.6814 10.894 53.9319C11.2571 52.4173 11.8381 51.1191 12.5644 49.9651C13.2906 48.8111 14.2348 47.9456 15.4694 47.2964C16.7041 46.6473 19.7544 46.3588 19.7544 46.3588V45.2048C19.7544 45.2048 16.7041 44.9163 15.4694 44.2672C14.3074 43.6181 13.2906 42.7526 12.5644 41.5986C11.7655 40.4446 11.2571 39.1463 10.894 37.6317C10.7274 36.7389 10.3856 34.4644 10.3856 34.4644H9.3688C9.3688 34.4644 9.03122 37.0549 8.86042 37.6317C8.49729 39.1463 7.91627 40.4446 7.19001 41.5986C6.46374 42.7526 5.51961 43.6181 4.28496 44.2672Z" fill="#F8F0E7"/>
</svg>
